<svg width="108" height="106" viewBox="0 0 108 106" fill="none" xmlns="http://www.w3.org/2000/svg">
<path d="M94.9877 85.683C95.0507 85.747 95.0497 85.85 94.9857 85.913L91.5427 89.304L91.4277 89.188L94.9877 85.683Z" fill="#881114"/>
<path d="M37.3916 1.71275C67.8916 -6.28805 95.3916 15.2127 100.892 35.7127C81.8916 8.71195 59.3916 -1.78805 37.3916 1.71275Z" fill="#881114"/>
<path d="M84.3916 24.7112C79.3916 14.7114 37.3916 -11.7886 9.8916 21.7112C40.8916 -23.2883 92.1416 14.7105 100.892 35.7105C101.725 37.7105 103.892 45.5 103.892 51.5C101.892 46 94.7916 31.1106 84.3916 24.7112Z" fill="#C82A2E"/>
<path d="M101.392 77.712C78.8916 106.712 43.3916 102 21.8916 84C52.3916 123 91.8916 94 101.392 77.712Z" fill="#881114"/>
<path d="M21.8916 83.712C36.8916 105.712 73.3916 108 94.8916 86C84.8916 101 42.8916 122.212 13.3916 83.712H21.8916Z" fill="#C82A2E"/>
<path d="M12.865 26.71L17.513 48.539C18.177 51.527 18.7303 54.432 19.173 57.254C19.671 60.021 20.086 62.926 20.418 65.969H20.584C21.0266 62.926 21.5246 59.965 22.078 57.088C22.6313 54.2107 23.2123 51.361 23.821 48.539L28.801 26.71H42.33L47.393 48.539C48.057 51.361 48.638 54.2107 49.136 57.088C49.634 59.91 50.1043 62.87 50.547 65.969H50.713C51.1003 62.87 51.5706 59.882 52.124 57.005C52.6773 54.0723 53.2307 51.2503 53.784 48.539L58.2657 26.71H70.9647L58.2657 79H44.322L39.093 56.756C38.429 53.934 37.7927 51.0843 37.184 48.207C36.5753 45.2743 35.9943 42.314 35.441 39.326H35.275C34.777 42.314 34.2236 45.2467 33.615 48.124C33.0063 51.0013 32.3976 53.851 31.789 56.673L26.726 79H12.948L0 26.71H12.865Z" fill="black"/>
<path d="M84.3536 25.714C88.0056 25.714 91.1596 26.1013 93.8156 26.876C96.4716 27.5953 98.7676 28.4807 100.705 29.532L97.8826 38.745C95.7246 37.6383 93.5386 36.7807 91.3256 36.172C89.1676 35.508 87.0926 35.176 85.1006 35.176C82.5546 35.176 80.6186 35.6463 79.2906 36.587C77.9626 37.5277 77.2986 38.7727 77.2986 40.322C77.2986 42.0927 77.9346 43.393 79.2076 44.223C80.4796 44.9977 82.4446 45.8277 85.1006 46.713L89.9976 48.29C91.9336 48.954 93.7326 49.784 95.3926 50.78C97.0526 51.7207 98.4636 52.8273 99.6256 54.1C100.843 55.3727 101.784 56.8113 102.448 58.416C103.112 60.021 103.444 61.764 103.444 63.645C103.444 65.858 103.029 67.961 102.199 69.953C101.369 71.89 100.096 73.605 98.3806 75.099C96.7206 76.593 94.5896 77.783 91.9896 78.668C89.4436 79.498 86.4286 79.913 82.9426 79.913C79.6776 79.913 76.5516 79.581 73.5636 78.917C70.6306 78.198 67.9196 77.202 65.4296 75.929L68.2516 66.716C70.6306 67.878 72.9546 68.791 75.2236 69.455C77.4916 70.119 79.8716 70.451 82.3616 70.451C85.2936 70.451 87.3966 69.981 88.6696 69.04C89.9976 68.044 90.6616 66.716 90.6616 65.056C90.6616 64.503 90.5506 63.949 90.3296 63.396C90.1076 62.843 89.6656 62.289 89.0016 61.736C88.3926 61.183 87.5076 60.657 86.3456 60.159C85.2386 59.606 83.7996 59.052 82.0296 58.499L77.9626 57.088C76.0256 56.3687 74.2276 55.5663 72.5676 54.681C70.9076 53.7957 69.4686 52.7443 68.2516 51.527C67.0896 50.3097 66.1766 48.8987 65.5126 47.294C64.8486 45.6893 64.5166 43.7803 64.5166 41.567C64.5166 39.2983 64.9316 37.1957 65.7616 35.259C66.6466 33.3223 67.9196 31.6623 69.5796 30.279C71.2946 28.8403 73.3696 27.7337 75.8046 26.959C78.2946 26.129 81.1436 25.714 84.3536 25.714Z" fill="black"/>
<mask id="mask0_395_16" style="mask-type:luminance" maskUnits="userSpaceOnUse" x="59" y="21" width="49" height="63">
<path d="M107.892 21H59.8916V84H107.892V21Z" fill="white"/>
<path d="M84.3536 25.714C88.0056 25.714 91.1596 26.1013 93.8156 26.876C96.4716 27.5953 98.7676 28.4807 100.705 29.532L97.8826 38.745C95.7246 37.6383 93.5386 36.7807 91.3256 36.172C89.1676 35.508 87.0926 35.176 85.1006 35.176C82.5546 35.176 80.6186 35.6463 79.2906 36.587C77.9626 37.5277 77.2986 38.7727 77.2986 40.322C77.2986 42.0927 77.9346 43.393 79.2076 44.223C80.4796 44.9977 82.4446 45.8277 85.1006 46.713L89.9976 48.29C91.9336 48.954 93.7326 49.784 95.3926 50.78C97.0526 51.7207 98.4636 52.8273 99.6256 54.1C100.843 55.3727 101.784 56.8113 102.448 58.416C103.112 60.021 103.444 61.764 103.444 63.645C103.444 65.858 103.029 67.961 102.199 69.953C101.369 71.89 100.096 73.605 98.3806 75.099C96.7206 76.593 94.5896 77.783 91.9896 78.668C89.4436 79.498 86.4286 79.913 82.9426 79.913C79.6776 79.913 76.5516 79.581 73.5636 78.917C70.6306 78.198 67.9196 77.202 65.4296 75.929L68.2516 66.716C70.6306 67.878 72.9546 68.791 75.2236 69.455C77.4916 70.119 79.8716 70.451 82.3616 70.451C85.2936 70.451 87.3966 69.981 88.6696 69.04C89.9976 68.044 90.6616 66.716 90.6616 65.056C90.6616 64.503 90.5506 63.949 90.3296 63.396C90.1076 62.843 89.6656 62.289 89.0016 61.736C88.3926 61.183 87.5076 60.657 86.3456 60.159C85.2386 59.606 83.7996 59.052 82.0296 58.499L77.9626 57.088C76.0256 56.3687 74.2276 55.5663 72.5676 54.681C70.9076 53.7957 69.4686 52.7443 68.2516 51.527C67.0896 50.3097 66.1766 48.8987 65.5126 47.294C64.8486 45.6893 64.5166 43.7803 64.5166 41.567C64.5166 39.2983 64.9316 37.1957 65.7616 35.259C66.6466 33.3223 67.9196 31.6623 69.5796 30.279C71.2946 28.8403 73.3696 27.7337 75.8046 26.959C78.2946 26.129 81.1436 25.714 84.3536 25.714Z" fill="black"/>
</mask>
<g mask="url(#mask0_395_16)">
<path d="M93.8156 26.876L92.6956 30.716L92.7326 30.7268L92.7696 30.7369L93.8156 26.876ZM100.705 29.532L104.529 30.7035L105.487 27.5767L102.613 26.0166L100.705 29.532ZM97.8826 38.745L96.0566 42.3043L100.308 44.4841L101.707 39.9165L97.8826 38.745ZM91.3256 36.172L90.1486 39.9951L90.2066 40.0128L90.2646 40.0288L91.3256 36.172ZM79.2076 44.223L77.0226 47.5734L77.0746 47.6074L77.1276 47.6398L79.2076 44.223ZM85.1006 46.713L83.8356 50.5077L83.8546 50.5142L83.8746 50.5204L85.1006 46.713ZM89.9976 48.29L91.2946 44.5062L91.2596 44.4941L91.2236 44.4826L89.9976 48.29ZM95.3926 50.78L93.3346 54.21L93.3766 54.2356L93.4206 54.2601L95.3926 50.78ZM99.6256 54.1L96.6716 56.7971L96.7026 56.8313L96.7346 56.8649L99.6256 54.1ZM102.199 69.953L105.875 71.529L105.883 71.51L105.891 71.491L102.199 69.953ZM98.3806 75.099L95.7536 72.083L95.7286 72.104L95.7046 72.126L98.3806 75.099ZM91.9896 78.668L93.2296 82.471L93.2536 82.463L93.2786 82.455L91.9896 78.668ZM73.5636 78.917L72.6106 82.802L72.6526 82.812L72.6956 82.822L73.5636 78.917ZM65.4296 75.929L61.6046 74.758L60.6226 77.964L63.6086 79.491L65.4296 75.929ZM68.2516 66.716L70.0066 63.122L65.7986 61.067L64.4266 65.544L68.2516 66.716ZM88.6696 69.04L91.0466 72.257L91.0586 72.248L91.0696 72.24L88.6696 69.04ZM89.0016 61.736L86.3106 64.696L86.3746 64.754L86.4406 64.809L89.0016 61.736ZM86.3456 60.159L84.5566 63.737L84.6616 63.789L84.7696 63.836L86.3456 60.159ZM82.0296 58.499L80.7186 62.278L80.7766 62.298L80.8366 62.317L82.0296 58.499ZM77.9626 57.088L76.5696 60.838L76.6106 60.853L76.6516 60.867L77.9626 57.088ZM68.2516 51.527L65.3576 54.2889L65.3896 54.3225L65.4226 54.3554L68.2516 51.527ZM65.7616 35.259L62.1236 33.596L62.1036 33.6394L62.0846 33.6833L65.7616 35.259ZM69.5796 30.279L72.1396 33.3519L72.1496 33.3438L69.5796 30.279ZM75.8046 26.959L77.0176 30.7707L77.0436 30.7624L77.0696 30.7537L75.8046 26.959ZM84.3536 29.714C87.7396 29.714 90.4976 30.0751 92.6956 30.716L94.9356 23.036C91.8206 22.1275 88.2706 21.714 84.3536 21.714V29.714ZM92.7696 30.7369C95.1966 31.3941 97.1896 32.1757 98.7956 33.0474L102.613 26.0166C100.346 24.7857 97.7466 23.7965 94.8606 23.0151L92.7696 30.7369ZM96.8796 28.3605L94.0576 37.5735L101.707 39.9165L104.529 30.7035L96.8796 28.3605ZM99.7076 35.1857C97.3196 33.961 94.8786 33.0005 92.3856 32.3152L90.2646 40.0288C92.1996 40.5608 94.1296 41.3157 96.0566 42.3043L99.7076 35.1857ZM92.5016 32.3489C90.0126 31.583 87.5406 31.176 85.1006 31.176V39.176C86.6446 39.176 88.3216 39.433 90.1486 39.9951L92.5016 32.3489ZM85.1006 31.176C82.1606 31.176 79.2656 31.7023 76.9786 33.3229L81.6026 39.8511C81.9706 39.5903 82.9496 39.176 85.1006 39.176V31.176ZM76.9786 33.3229C74.6546 34.9688 73.2986 37.3999 73.2986 40.322H81.2986C81.2986 40.2218 81.3086 40.1653 81.3146 40.1418C81.3196 40.1199 81.3236 40.1121 81.3256 40.1086C81.3276 40.1045 81.3396 40.0831 81.3756 40.044C81.4126 40.0033 81.4816 39.9365 81.6026 39.8511L76.9786 33.3229ZM73.2986 40.322C73.2986 43.1841 74.4156 45.8733 77.0226 47.5734L81.3926 40.8726C81.3496 40.8444 81.3416 40.8327 81.3506 40.8429C81.3546 40.8469 81.3586 40.8525 81.3636 40.8586C81.3676 40.8647 81.3686 40.8681 81.3686 40.867C81.3686 40.8665 81.3516 40.8333 81.3346 40.7502C81.3166 40.665 81.2986 40.5264 81.2986 40.322H73.2986ZM77.1276 47.6398C78.7906 48.6522 81.0966 49.5949 83.8356 50.5077L86.3656 42.9183C83.7916 42.0605 82.1696 41.3432 81.2866 40.8062L77.1276 47.6398ZM83.8746 50.5204L88.7716 52.0974L91.2236 44.4826L86.3266 42.9056L83.8746 50.5204ZM88.6996 52.0738C90.3866 52.652 91.9286 53.3663 93.3346 54.21L97.4506 47.35C95.5366 46.2017 93.4816 45.256 91.2946 44.5062L88.6996 52.0738ZM93.4206 54.2601C94.7526 55.0151 95.8216 55.8669 96.6716 56.7971L102.58 51.4029C101.105 49.7878 99.3516 48.4262 97.3646 47.2999L93.4206 54.2601ZM96.7346 56.8649C97.6146 57.784 98.2796 58.806 98.7516 59.945L106.144 56.8866C105.287 54.8172 104.071 52.9609 102.516 51.3351L96.7346 56.8649ZM98.7516 59.945C99.1986 61.026 99.4436 62.244 99.4436 63.645H107.444C107.444 61.283 107.025 59.015 106.144 56.8866L98.7516 59.945ZM99.4436 63.645C99.4436 65.344 99.1276 66.923 98.5056 68.415L105.891 71.491C106.929 68.999 107.444 66.373 107.444 63.645H99.4436ZM98.5216 68.377C97.9476 69.718 97.0516 70.952 95.7536 72.083L101.008 78.115C103.14 76.258 104.79 74.062 105.875 71.529L98.5216 68.377ZM95.7046 72.126C94.5286 73.185 92.9026 74.132 90.7006 74.881L93.2786 82.455C96.2766 81.434 98.9126 80.001 101.057 78.072L95.7046 72.126ZM90.7496 74.865C88.7046 75.532 86.1276 75.913 82.9426 75.913V83.913C86.7296 83.913 90.1836 83.464 93.2296 82.471L90.7496 74.865ZM82.9426 75.913C79.9506 75.913 77.1156 75.609 74.4306 75.012L72.6956 82.822C75.9866 83.553 79.4046 83.913 82.9426 83.913V75.913ZM74.5166 75.032C71.8606 74.381 69.4426 73.488 67.2496 72.367L63.6086 79.491C66.3956 80.915 69.4006 82.015 72.6106 82.802L74.5166 75.032ZM69.2536 77.1L72.0756 67.887L64.4266 65.544L61.6046 74.758L69.2536 77.1ZM66.4956 70.31C69.0546 71.56 71.5896 72.559 74.0996 73.294L76.3466 65.616C74.3196 65.023 72.2066 64.196 70.0066 63.122L66.4956 70.31ZM74.0996 73.294C76.7526 74.07 79.5116 74.451 82.3616 74.451V66.451C80.2316 66.451 78.2316 66.168 76.3466 65.616L74.0996 73.294ZM82.3616 74.451C85.5176 74.451 88.7096 73.985 91.0466 72.257L86.2916 65.823C86.0836 65.977 85.0706 66.451 82.3616 66.451V74.451ZM91.0696 72.24C93.4046 70.489 94.6616 67.975 94.6616 65.056H86.6616C86.6616 65.339 86.6086 65.462 86.5856 65.508C86.5626 65.554 86.4956 65.67 86.2696 65.84L91.0696 72.24ZM94.6616 65.056C94.6616 63.956 94.4386 62.9 94.0436 61.91L86.6156 64.882C86.6626 64.999 86.6616 65.05 86.6616 65.056H94.6616ZM94.0436 61.91C93.4886 60.525 92.5216 59.463 91.5616 58.663L86.4406 64.809C86.6096 64.95 86.6866 65.038 86.7076 65.065C86.7286 65.091 86.6756 65.031 86.6156 64.882L94.0436 61.91ZM91.6916 58.776C90.6266 57.808 89.2966 57.072 87.9206 56.4824L84.7696 63.836C85.7176 64.242 86.1586 64.557 86.3106 64.696L91.6916 58.776ZM88.1346 56.5813C86.7666 55.8974 85.1076 55.2701 83.2226 54.6811L80.8366 62.317C82.4926 62.835 83.7106 63.314 84.5566 63.737L88.1346 56.5813ZM83.3406 54.72L79.2736 53.309L76.6516 60.867L80.7186 62.278L83.3406 54.72ZM79.3546 53.3383C77.5706 52.6754 75.9366 51.9449 74.4496 51.1516L70.6846 58.21C72.5176 59.188 74.4806 60.062 76.5696 60.838L79.3546 53.3383ZM74.4496 51.1516C73.1056 50.4349 71.9936 49.6123 71.0796 48.6986L65.4226 54.3554C66.9436 55.8764 68.7086 57.156 70.6846 58.21L74.4496 51.1516ZM71.1446 48.7651C70.3346 47.9169 69.6896 46.9272 69.2086 45.7646L61.8166 48.8234C62.6636 50.8701 63.8436 52.7024 65.3576 54.2889L71.1446 48.7651ZM69.2086 45.7646C68.7916 44.7581 68.5166 43.3938 68.5166 41.567H60.5166C60.5166 44.1669 60.9046 46.6206 61.8166 48.8234L69.2086 45.7646ZM68.5166 41.567C68.5166 39.798 68.8376 38.2362 69.4376 36.8347L62.0846 33.6833C61.0256 36.1551 60.5166 38.7987 60.5166 41.567H68.5166ZM69.3996 36.922C70.0316 35.5383 70.9326 34.3577 72.1396 33.3519L67.0186 27.2061C64.9056 28.967 63.2616 31.1064 62.1236 33.596L69.3996 36.922ZM72.1496 33.3438C73.4126 32.2842 75.0096 31.4094 77.0176 30.7707L74.5916 23.1473C71.7296 24.0579 69.1766 25.3965 67.0086 27.2142L72.1496 33.3438ZM77.0696 30.7537C79.0726 30.0861 81.4816 29.714 84.3536 29.714V21.714C80.8066 21.714 77.5166 22.1719 74.5396 23.1643L77.0696 30.7537Z" fill="white"/>
</g>
</svg>
